<?xml version="1.0" encoding="UTF-8" standalone="no"?>
<!-- Created with Inkscape (http://www.inkscape.org/) -->

<svg
   width="200mm"
   height="188mm"
   viewBox="0 0 200 188"
   version="1.1"
   id="svg5"
   xml:space="preserve"
   inkscape:version="1.2.2 (732a01da63, 2022-12-09)"
   sodipodi:docname="bubble-gum-key.svg"
   xmlns:inkscape="http://www.inkscape.org/namespaces/inkscape"
   xmlns:sodipodi="http://sodipodi.sourceforge.net/DTD/sodipodi-0.dtd"
   xmlns="http://www.w3.org/2000/svg"
   xmlns:svg="http://www.w3.org/2000/svg"><sodipodi:namedview
     id="namedview7"
     pagecolor="#ffffff"
     bordercolor="#000000"
     borderopacity="0.25"
     inkscape:showpageshadow="2"
     inkscape:pageopacity="0.0"
     inkscape:pagecheckerboard="0"
     inkscape:deskcolor="#d1d1d1"
     inkscape:document-units="mm"
     showgrid="false"
     inkscape:zoom="0.44631734"
     inkscape:cx="-105.30624"
     inkscape:cy="696.81362"
     inkscape:window-width="1920"
     inkscape:window-height="1009"
     inkscape:window-x="-8"
     inkscape:window-y="-8"
     inkscape:window-maximized="1"
     inkscape:current-layer="layer1" /><defs
     id="defs2" /><g
     inkscape:label="Layer 1"
     inkscape:groupmode="layer"
     id="layer1"><g
       inkscape:label="Image"
       id="g138"
       transform="matrix(0.56322382,0,0,0.56322382,5.6742475,5.1124795)"><path
         id="rect1089"
         style="display:inline;fill:#cbc8ff;fill-opacity:1;stroke:#000000;stroke-width:1;stroke-linecap:round;stroke-dasharray:none;stroke-opacity:1;paint-order:markers fill stroke"
         d="M 43.445367,182.07521 -9.2274367,196.70445 -58.957382,182.52911 c -10.737972,11.44562 -25.753506,25.34578 -25.960217,37.67732 l 9.8e-5,154.9519 c 0,9.72641 8.074954,17.55536 18.106517,17.55536 l 117.616957,7.8e-4 c 10.031563,0 18.107695,-7.8311 18.107695,-17.5575 l 0.0012,-154.95042 C 66.533253,206.62956 52.190908,193.31354 43.445367,182.07521 Z"
         transform="matrix(0.64728952,-0.76224424,0.75945902,0.65055515,0,0)"
         sodipodi:nodetypes="cccccccccc" /><path
         id="path298-8"
         style="display:inline;fill:#ffe993;fill-opacity:1;stroke:#000000;stroke-width:1;stroke-linecap:round;stroke-dasharray:none;stroke-opacity:1;paint-order:markers fill stroke"
         d="m 134.40039,73.261719 c -28.4103,0 -51.441403,23.031099 -51.441406,51.441401 -2e-6,28.41031 23.031096,51.44141 51.441406,51.44141 10.71228,-0.005 21.15575,-3.3542 29.87305,-9.58008 14.52853,13.06876 30.96964,26.45926 46.3457,39.40039 l -0.38867,17.06641 16.29101,-1.16406 5.04297,18.61914 h 16.29102 l 17.8418,15.12695 2.71484,-30.64258 -87.66016,-76.80078 -0.0993,0.13408 c 4.2969,-7.67154 5.18427,-14.80794 5.18919,-23.60088 0,-28.410304 -23.03111,-51.441403 -51.44141,-51.441401 z m -9.11523,27.382811 c 9.75215,4.9e-4 17.65771,7.90605 17.6582,17.6582 5.9e-4,9.75292 -7.90528,17.65967 -17.6582,17.66016 -9.75292,-4.9e-4 -17.6588,-7.90724 -17.65821,-17.66016 4.9e-4,-9.75215 7.90606,-17.65771 17.65821,-17.6582 z"
         sodipodi:nodetypes="ssccccccccccccsccccc" /><path
         style="display:inline;fill:none;fill-opacity:0.501767;stroke:#000000;stroke-width:3.77953;stroke-linecap:round;stroke-dasharray:none;stroke-opacity:1;paint-order:markers fill stroke"
         id="path983"
         sodipodi:type="arc"
         sodipodi:cx="70.788094"
         sodipodi:cy="70.788094"
         sodipodi:rx="68.294853"
         sodipodi:ry="68.294853"
         sodipodi:start="1.3868392"
         sodipodi:end="0.93860252"
         sodipodi:open="true"
         sodipodi:arc-type="arc"
         d="M 83.280681,137.93065 A 68.294853,68.294853 0 0 1 5.4636451,90.710528 68.294853,68.294853 0 0 1 43.685721,8.1011861 68.294853,68.294853 0 0 1 130.05111,36.845758 68.294853,68.294853 0 0 1 111.14461,125.88381" /></g></g></svg>
