<?xml version="1.0" encoding="UTF-8" standalone="no"?>
<!-- Created with Inkscape (http://www.inkscape.org/) -->

<svg
   width="200mm"
   height="200mm"
   viewBox="0 0 200 200"
   version="1.1"
   id="svg5"
   xml:space="preserve"
   inkscape:version="1.2.2 (732a01da63, 2022-12-09)"
   sodipodi:docname="bubble-gum-open-lock.svg"
   xmlns:inkscape="http://www.inkscape.org/namespaces/inkscape"
   xmlns:sodipodi="http://sodipodi.sourceforge.net/DTD/sodipodi-0.dtd"
   xmlns="http://www.w3.org/2000/svg"
   xmlns:svg="http://www.w3.org/2000/svg"><sodipodi:namedview
     id="namedview7"
     pagecolor="#ffffff"
     bordercolor="#000000"
     borderopacity="0.25"
     inkscape:showpageshadow="2"
     inkscape:pageopacity="0.0"
     inkscape:pagecheckerboard="0"
     inkscape:deskcolor="#d1d1d1"
     inkscape:document-units="mm"
     showgrid="false"
     inkscape:zoom="0.63118804"
     inkscape:cx="302.60396"
     inkscape:cy="564.01576"
     inkscape:window-width="1920"
     inkscape:window-height="1009"
     inkscape:window-x="-8"
     inkscape:window-y="-8"
     inkscape:window-maximized="1"
     inkscape:current-layer="layer1" /><defs
     id="defs2" /><g
     inkscape:label="Layer 1"
     inkscape:groupmode="layer"
     id="layer1"><g
       inkscape:label="Image"
       id="g10381"
       transform="matrix(0.56278858,0,0,0.56278858,3.7024016,2.5691346)"><path
         id="rect10437-9-6"
         style="display:inline;fill:#ffd169;fill-opacity:1;stroke:#000000;stroke-width:1;stroke-linecap:round;stroke-dasharray:none"
         d="m 199.49943,75.102969 c -1.29245,0.0352 -2.56999,0.56429 -3.53351,1.57843 L 52.406611,227.78455 c -1.927015,2.02828 -1.840653,5.20747 0.193766,7.128 27.620924,24.73092 55.483033,53.41129 81.543103,78.14021 43.16988,40.75303 110.84375,38.91154 151.73453,-4.12787 l 34.74877,-37.38928 c 11.36582,-50.249 8.84349,-77.8834 -34.32641,-118.63644 -28.65796,-23.24121 -55.62323,-50.39362 -83.18466,-76.411541 -1.01723,-0.96027 -2.32379,-1.41982 -3.61628,-1.38466 z"
         sodipodi:nodetypes="sccccccccs" /><path
         id="rect10437-9"
         style="display:inline;fill:#ffe993;fill-opacity:1;stroke:#000000;stroke-width:1;stroke-linecap:round;stroke-dasharray:none"
         d="m 220.68786,53.01211 c -1.29245,0.03516 -2.56999,0.564294 -3.53351,1.578431 L 73.59504,205.69369 c -1.927015,2.02829 -1.840653,5.20748 0.193766,7.12801 27.620924,24.73092 55.483034,53.41128 81.543104,78.1402 43.16988,40.75303 110.84375,38.91154 151.73453,-4.12787 l 4.53719,-4.77451 C 352.4944,239.0201 350.6587,171.56136 307.4888,130.80832 278.83084,107.56711 251.86557,80.4147 224.30414,54.396776 c -1.01723,-0.960269 -2.32379,-1.419821 -3.61628,-1.384666 z"
         sodipodi:nodetypes="sccccccccs" /><path
         id="rect10437"
         style="display:inline;fill:#ffe993;fill-opacity:1;stroke:#000000;stroke-width:1;stroke-linecap:round;stroke-dasharray:none;stroke-opacity:1"
         d="m 101.9294,208.90656 c -0.81887,-0.81887 -1.950794,-1.32279 -3.205715,-1.32279 l -186.979125,2.2e-4 c -2.509842,0 -4.530602,2.02062 -4.530602,4.53046 0.876521,33.24538 -0.674829,69.088 -0.758219,101.31701 0,53.2582 42.876562,96.13377 96.1347694,96.13377 l 5.9087433,6.8e-4 c 53.2582073,0 96.1342383,-42.87712 96.1342383,-96.13534 -2.48697,-32.99934 -1.38007,-67.31455 -1.38039,-101.31649 0,-1.25493 -0.50483,-2.38865 -1.3237,-3.20752 z"
         sodipodi:nodetypes="sccccccccs"
         transform="matrix(0.68877885,-0.72497151,0.72716899,0.68645849,0,0)" /><path
         id="rect10437-6"
         style="display:inline;fill:#ffd169;fill-opacity:1;stroke:none;stroke-width:1;stroke-linecap:round;stroke-dasharray:none;stroke-opacity:1"
         d="m 222.10759,70.621519 c -1.15363,0.03117 -2.29392,0.500873 -3.15393,1.40104 L 90.816512,206.1437 c -1.719985,1.80033 -1.642915,4.62224 0.172954,6.32692 0.815652,0.72626 1.632458,1.48481 2.44852,2.21848 L 218.95366,83.312051 c 0.86,-0.900161 2.0003,-1.369839 3.15393,-1.401042 1.15363,-0.03121 2.31982,0.376705 3.22777,1.229052 24.60055,23.093829 48.66908,47.194719 74.24838,67.823909 18.47206,17.34102 28.43999,40.13081 29.81751,63.36762 1.64257,-27.01255 -8.35694,-54.51058 -29.81751,-74.65712 -25.5793,-20.62917 -49.64782,-44.730057 -74.24838,-67.8239 -0.90795,-0.852349 -2.07415,-1.260249 -3.22777,-1.229051 z" /><path
         id="path11125-6"
         style="display:inline;fill:#cbc8ff;fill-opacity:1;stroke:#000000;stroke-width:1;stroke-linecap:round;stroke-dasharray:none"
         d="M 95.097656,1.8652344 C 43.227234,1.8652683 1.1777683,43.914734 1.1777344,95.785156 1.1777593,135.44099 29.82299,170.15844 73.830078,204.56055 L 96.740234,180.92188 C 50.572322,142.99397 33.812823,125.79412 33.8125,97.158203 33.811815,62.173124 62.173124,33.811815 97.158203,33.8125 c 9.232487,1.04e-4 17.998667,1.981116 25.904297,5.537109 l -0.22571,-0.02301 19.66321,-5.58246 -9.95312,10.195312 0.1209,0.285349 c 4.23705,3.423991 4.09016,3.555398 8.86152,7.761527 l 20.85742,-21.69336 C 145.32489,12.765909 121.49003,1.865251 95.097656,1.8652344 Z"
         sodipodi:nodetypes="cccccccccccccc" /><path
         style="display:inline;fill:none;fill-opacity:1;stroke:#ffffff;stroke-width:4;stroke-linecap:round;stroke-dasharray:none;stroke-opacity:1"
         d="M 55.59186,23.304884 C 74.131524,11.923227 102.67422,8.3929772 115.79615,15.29383"
         id="path11661"
         sodipodi:nodetypes="cc" /><g
         id="g18298"
         style="display:inline"
         transform="translate(37.384919,-20.998672)"><path
           id="path18249-2-6-7-2"
           style="display:inline;fill:#cbc8ff;fill-opacity:1;stroke:#000000;stroke-width:1.09211;stroke-linecap:round;stroke-dasharray:none;stroke-opacity:1"
           d="m 177.00306,199.0786 a 18.163122,18.163122 0 0 0 -18.16211,18.16211 18.163122,18.163122 0 0 0 18.16211,18.16407 18.163122,18.163122 0 0 0 4.83007,-0.67383 c 8.19241,9.20395 18.04542,20.73251 25.39453,28.75587 l 17.47852,-18.44922 -29.91015,-24.35547 a 18.163122,18.163122 0 0 0 0.3711,-3.44141 18.163122,18.163122 0 0 0 -18.16407,-18.16212 z" /><path
           id="path18249-2"
           style="display:inline;fill:#112c41;fill-opacity:1;stroke:none;stroke-width:1.09211;stroke-linecap:round;stroke-dasharray:none;stroke-opacity:1"
           d="m 177.04482,199.613 a 18.163122,18.163122 0 0 0 -13.75,6.42774 18.163122,18.163122 0 0 1 8.60937,-2.28906 18.163122,18.163122 0 0 1 18.16407,18.16211 18.163122,18.163122 0 0 1 -0.3711,3.4414 l 29.91016,24.35547 -11.41797,12.05274 c 0.002,0.003 0.006,0.005 0.008,0.008 l 15.8711,-16.75391 -29.23047,-23.80078 a 18.163122,18.163122 0 0 0 0.37109,-3.44141 18.163122,18.163122 0 0 0 -18.16406,-18.16211 z" /></g></g></g></svg>
